<svg width="24" height="25" viewBox="0 0 24 25" fill="none" xmlns="http://www.w3.org/2000/svg">
<path d="M13.125 12.5C13.125 12.7225 13.059 12.94 12.9354 13.125C12.8118 13.31 12.6361 13.4542 12.4305 13.5394C12.225 13.6245 11.9988 13.6468 11.7805 13.6034C11.5623 13.56 11.3618 13.4528 11.2045 13.2955C11.0472 13.1382 10.94 12.9377 10.8966 12.7195C10.8532 12.5012 10.8755 12.275 10.9606 12.0695C11.0458 11.8639 11.19 11.6882 11.375 11.5646C11.56 11.441 11.7775 11.375 12 11.375C12.2984 11.375 12.5845 11.4935 12.7955 11.7045C13.0065 11.9155 13.125 12.2016 13.125 12.5ZM12 7.25C12.2225 7.25 12.44 7.18402 12.625 7.0604C12.81 6.93679 12.9542 6.76109 13.0394 6.55552C13.1245 6.34995 13.1468 6.12375 13.1034 5.90552C13.06 5.6873 12.9528 5.48684 12.7955 5.32951C12.6382 5.17217 12.4377 5.06503 12.2195 5.02162C12.0012 4.97821 11.775 5.00049 11.5695 5.08564C11.3639 5.17078 11.1882 5.31498 11.0646 5.49998C10.941 5.68499 10.875 5.9025 10.875 6.125C10.875 6.42337 10.9935 6.70952 11.2045 6.9205C11.4155 7.13147 11.7016 7.25 12 7.25ZM12 17.75C11.7775 17.75 11.56 17.816 11.375 17.9396C11.19 18.0632 11.0458 18.2389 10.9606 18.4445C10.8755 18.65 10.8532 18.8762 10.8966 19.0945C10.94 19.3127 11.0472 19.5132 11.2045 19.6705C11.3618 19.8278 11.5623 19.935 11.7805 19.9784C11.9988 20.0218 12.225 19.9995 12.4305 19.9144C12.6361 19.8292 12.8118 19.685 12.9354 19.5C13.059 19.315 13.125 19.0975 13.125 18.875C13.125 18.5766 13.0065 18.2905 12.7955 18.0795C12.5845 17.8685 12.2984 17.75 12 17.75Z" fill="black"/>
</svg>
